# xmcd
#
# Track frame offsets: 
#        150
#        15146
#        33432
#        46148
#        65117
#        79117
#        93686
#        112187
#        125084
#        138820
#        158097
#        170049
#        183630
#        197534
#        214416
#
# Disc length: 3044 seconds
#
# Revision: 3
# Processed by: cddbd v1.5.2PL0 Copyright (c) Steve Scherf et al.
# Submitted via: ExactAudioCopy v0.99pb5
#
DISCID=d50be20f
DTITLE=Various Artist - Classic Country - TL 626-17 - 1976 - 1982 - CD 1
DYEAR=2001
DGENRE=Country
TTITLE0=Dolly Parton - It's all wrong, but it's all right
TTITLE1=Johnny Cash And The Tennessee Three - One piece at a time
TTITLE2=Crystal Gayle - When I dream
TTITLE3=Waylon Jennings - I've always been crazy
TTITLE4=Loretta Lynn - She's got you
TTITLE5=Charley Pride - Burgers and fries
TTITLE6=Juice Newton - The sweetest thing (I've ever known)
TTITLE7=Willie Nelson - Remember me
TTITLE8=George Jones and Tammy Wynette - Golden ring
TTITLE9=Marty Robbins - El Paso City
TTITLE10=Billie Jo Spears - Misty Blue
TTITLE11=Mickey Gilley - Don't the girls all get prettier at closing t
TTITLE11=ime
TTITLE12=Jim Ed Brown and Helen Cornelius - I don't want to have to marr
TTITLE12=y you
TTITLE13=Conway Twitty - Don't take it away
TTITLE14=Don Williams - I'm just a country boy
EXTD=Classic Country 1976-1982 CD1
EXTT0=
EXTT1=
EXTT2=
EXTT3=
EXTT4=
EXTT5=
EXTT6=
EXTT7=
EXTT8=
EXTT9=
EXTT10=
EXTT11=
EXTT12=
EXTT13=
EXTT14=
PLAYORDER=
